HIERARCHY
ROOT hip
{
	OFFSET 0.000000 0.000000 0.000000 
	CHANNELS 6 Xposition Yposition Zposition Xrotation Zrotation Yrotation
	JOINT abdomen
	{
		OFFSET 0.000000 3.402643 0.000000 
		CHANNELS 3 Xrotation Zrotation Yrotation
		JOINT chest
		{
			OFFSET 0.000000 8.438565 -0.680529 
			CHANNELS 3 Xrotation Zrotation Yrotation
			JOINT neck
			{
				OFFSET 0.000000 10.207942 -0.272212 
				CHANNELS 3 Xrotation Zrotation Yrotation
				JOINT head
				{
					OFFSET 0.000000 3.130431 0.000000 
					CHANNELS 3 Xrotation Zrotation Yrotation
					End Site
					{
						OFFSET 0.000000 3.130435 0.000000 
					}
				}
			}
			JOINT lCollar
			{
				OFFSET 3.470700 6.669187 -0.816635 
				CHANNELS 3 Yrotation Zrotation Xrotation
				JOINT lShldr
				{
					OFFSET 3.198488 0.000000 0.000000 
					CHANNELS 3 Zrotation Yrotation Xrotation
					JOINT lForeArm
					{
						OFFSET 10.139888 0.000000 0.000000 
						CHANNELS 3 Yrotation Zrotation Xrotation
						JOINT lHand
						{
							OFFSET 8.370511 0.000000 0.000000 
							CHANNELS 3 Zrotation Yrotation Xrotation
							End Site
							{
								OFFSET 4.083176 0.000000 0.000000 
							}
						}
					}
				}
			}
			JOINT rCollar
			{
				OFFSET -3.470700 6.669187 -0.816635 
				CHANNELS 3 Yrotation Zrotation Xrotation
				JOINT rShldr
				{
					OFFSET -3.198488 0.000000 0.000000 
					CHANNELS 3 Zrotation Yrotation Xrotation
					JOINT rForeArm
					{
						OFFSET -10.139888 0.000000 0.000000 
						CHANNELS 3 Yrotation Zrotation Xrotation
						JOINT rHand
						{
							OFFSET -8.370511 0.000000 0.000000 
							CHANNELS 3 Zrotation Yrotation Xrotation
							End Site
							{
								OFFSET -4.083176 0.000000 0.000000 
							}
						}
					}
				}
			}
		}
	}
	JOINT lThigh
	{
		OFFSET 5.308129 -1.633274 1.361059 
		CHANNELS 3 Xrotation Zrotation Yrotation
		JOINT lShin
		{
			OFFSET -2.041588 -20.007561 0.000000 
			CHANNELS 3 Xrotation Zrotation Yrotation
			JOINT lFoot
			{
				OFFSET 0.000000 -19.190928 -1.224953 
				CHANNELS 3 Xrotation Yrotation Zrotation
				End Site
				{
					OFFSET 0.000000 -2.449906 4.627600 
				}
			}
		}
	}
	JOINT rThigh
	{
		OFFSET -5.308129 -1.633274 1.361059 
		CHANNELS 3 Xrotation Zrotation Yrotation
		JOINT rShin
		{
			OFFSET 2.041588 -20.007561 0.000000 
			CHANNELS 3 Xrotation Zrotation Yrotation
			JOINT rFoot
			{
				OFFSET 0.000000 -19.190928 -1.224953 
				CHANNELS 3 Xrotation Yrotation Zrotation
				End Site
				{
					OFFSET 0.000000 -2.449906 4.627600 
				}
			}
		}
	}
}
MOTION
Frames: 6
Frame Time: 0.033333
-4.932134 51.986488 14.457624 -3.720703 1.748047 -147.421875 22.856325 -14.511764 -6.363661 -17.900391 7.304688 0.898438 51.063168 8.107644 2.471410 -30.908205 -0.478515 4.541009 2.000000 -2.000000 0.000000 -74.042969 24.072268 -8.667890 -51.621170 -1.618636 -1.975427 6.510873 59.917576 7.121169 -2.000000 2.000000 0.000000 84.160156 -28.164064 4.184844 61.094772 1.416559 -2.369062 -64.316902 -59.423935 54.156948 -3.427599 10.798562 12.224444 19.319939 -4.944557 -1.858492 -8.660931 2.975648 -4.898493 -3.223368 -13.367052 -23.281633 21.285492 4.789894 1.966397 -5.702021 -7.332417 13.865157 
-4.696175 51.970726 14.513632 -3.720703 1.748047 -146.894531 22.844650 -14.107955 -6.379120 -18.066406 7.490235 0.908203 51.063168 8.107644 2.471410 -33.583984 -0.927734 9.423828 2.000000 -2.000000 0.000000 -73.037109 23.925781 -7.119140 -51.808540 -1.788920 -2.043723 6.151198 59.573517 6.491295 -2.000000 2.000000 0.000000 84.814453 -28.388670 3.237546 61.101376 1.556555 -2.253114 -64.306862 -58.981354 54.271427 -3.661294 11.068085 11.883014 19.660667 -4.993116 -1.904057 -8.852896 2.926900 -5.317565 -3.350159 -13.032965 -23.258545 21.633118 4.828365 1.544824 -5.908506 -7.563381 13.738193 
-4.461845 51.970726 14.568481 -3.535156 1.914062 -146.200836 23.018368 -13.602889 -6.552541 -18.056641 7.666016 0.938803 51.063168 8.107644 2.471410 -36.083984 -1.220703 14.433595 2.000000 -2.000000 0.000000 -72.304688 23.867188 -5.273437 -51.984325 -1.788920 -2.043723 5.966108 59.220848 6.151536 -2.000000 2.000000 0.000000 84.960938 -28.593748 2.656250 61.094772 1.416559 -2.369062 -64.431801 -59.371372 54.409569 -4.012030 11.036208 11.132464 19.663147 -4.915709 -2.076923 -8.650453 2.758611 -5.279725 -3.301335 -12.947150 -24.495785 21.810108 4.769738 2.006166 -6.309827 -7.851955 13.313531 
-4.225482 51.970726 14.627728 -3.535156 1.914062 -145.673492 23.192425 -13.179562 -6.590377 -18.222656 7.841797 0.958364 51.063168 8.107644 2.471410 -38.564453 -1.367187 19.501953 2.000000 -2.000000 0.000000 -71.279305 23.886717 -3.662109 -52.161739 -1.909888 -2.105118 5.951765 58.664093 5.915193 -2.000000 2.000000 0.000000 85.273438 -28.603516 2.119140 61.270832 1.407377 -2.379372 -64.898750 -59.259808 54.910580 -4.511087 11.383357 10.222237 19.312716 -5.013360 -1.877795 -7.618271 2.994754 -5.821849 -3.448563 -12.737582 -24.988504 21.802280 4.764004 1.975202 -6.289159 -7.878274 12.660093 
-3.981098 51.994366 14.695192 -3.535156 1.914062 -145.146149 23.159647 -12.605755 -6.530371 -18.212891 8.017579 0.996094 51.063168 8.107644 2.471410 -41.025391 -1.347656 24.277348 2.000000 -2.000000 0.000000 -70.371094 23.662111 -1.802719 -52.160210 -1.730426 -2.047135 5.394206 58.348549 5.210532 -2.000000 2.000000 0.000000 85.390625 -28.623049 1.533203 61.094772 1.416559 -2.369062 -64.683151 -59.120110 54.829960 -4.873027 11.581064 9.634774 19.313631 -5.013541 -1.848638 -7.235009 2.730881 -5.858686 -3.604030 -12.527504 -25.520573 21.979553 4.750789 1.851159 -6.434893 -8.234630 12.660236 
-3.730881 52.002232 14.764624 -3.701171 1.914063 -144.443039 23.357702 -12.109477 -6.708549 -18.369141 8.369141 1.035156 51.063168 8.107644 2.471410 -43.291019 -0.986328 28.730471 2.000000 -2.000000 0.000000 -69.472656 23.505859 0.052723 -52.336418 -1.790057 -2.063214 4.729526 58.013374 4.234427 -2.000000 2.000000 0.000000 85.722656 -28.847656 1.215993 60.918991 1.416559 -2.369062 -64.577644 -59.173187 54.588367 -5.409074 11.568909 9.064429 19.684145 -4.941652 -1.868552 -6.644131 2.506254 -6.036244 -3.770307 -12.542766 -26.022467 22.155819 4.741121 2.029135 -6.383738 -8.500052 12.287086 
